<svg version="1.1" viewBox="0.0 0.0 288.0 288.0" fill="none" stroke="none" stroke-linecap="square" stroke-miterlimit="10" xmlns:xlink="http://www.w3.org/1999/xlink" xmlns="http://www.w3.org/2000/svg"><clipPath id="p.0"><path d="m0 0l288.0 0l0 288.0l-288.0 0l0 -288.0z" clip-rule="nonzero"/></clipPath><g clip-path="url(#p.0)"><path fill="#000000" fill-opacity="0.0" d="m0 0l288.0 0l0 288.0l-288.0 0z" fill-rule="evenodd"/><path fill="#42131a" d="m78.8189 71.796585l0 0c0 -35.998528 29.182571 -65.1811 65.1811 -65.1811l0 0l0 0c17.28711 0 33.866165 6.8672748 46.089996 19.091103c12.223831 12.223827 19.09111 28.802895 19.09111 46.089996l0 48.53544c0 35.998528 -29.182571 65.1811 -65.18111 65.1811l0 0l0 0c-35.998528 0 -65.1811 -29.182571 -65.1811 -65.1811z" fill-rule="evenodd"/><path fill="#42131a" d="m41.795277 134.51312l0 0c0 52.03366 45.373287 94.30545 101.570984 94.6281c56.197693 0.3226471 102.13367 -41.42491 102.83061 -93.454575l-23.95308 -0.27503967c-0.54693604 38.854416 -35.719833 70.022385 -78.74118 69.77539c-43.021355 -0.24699402 -77.752716 -31.816315 -77.752716 -70.673874z" fill-rule="evenodd"/><path fill="#42131a" d="m131.85826 207.21129l24.283478 0l0 74.17323l-24.283478 0z" fill-rule="evenodd"/><path fill="#42131a" d="m181.08661 257.10104l0 24.283478l-74.173225 0l0 -24.283478z" fill-rule="evenodd"/></g></svg>